<svg xmlns="http://www.w3.org/2000/svg" xmlns:xlink="http://www.w3.org/1999/xlink" id="Capa_1" x="0px" y="0px" viewBox="0 0 300 61" style="enable-background:new 0 0 300 61;" xml:space="preserve"> <style type="text/css"> .st0{fill-rule:evenodd;clip-rule:evenodd;fill:#FFFFFF;} .st1{fill:#FFFFFF;} </style> <g> <path class="st0" d="M12.3,0.5l5.3,31.7L46.4,0.5h12.1L29.2,33.3c-4.9,5.5-9.3,9.9-15.6,9.9c-6,0-7.6-4.6-8.4-9.9L0,0.5H12.3z"></path> <path class="st0" d="M117.8,0.4l-4,10.9H68c-2.3,0-3.2,1.7-3.9,3.6l-0.5,1.4H112l-4,10.9H59.7l-0.3,1c-0.7,2.1-1,3.6,1.2,3.6 l45.8,0l-4,11H56.6c-8.1,0-11.6-5.3-8.7-13.5L53.5,14C56.2,6.4,64.2,0.5,72,0.5L117.8,0.4z"></path> <path class="st0" d="M116.7,9.9c2-5.6,8.8-10,14.3-10c3.2,0,5.5,1.3,7.2,4L157,31.6l11.3-31.2h10.8l-11.3,31.2 c-2.5,6.8-9.2,11.7-15,11.7c-3.1,0-4.8-1.2-9.2-6.9l-16.7-25.2l-11.5,31.6h-10.7L116.7,9.9z"></path> <polygon class="st0" points="181.6,0.5 241.7,0.5 237.7,11.3 213.1,11.3 201.7,42.8 191,42.8 202.4,11.4 177.6,11.4 "></polygon> <path class="st0" d="M287.5,14.9c0.6-1.8,1.2-3.6-1.1-3.6h-32.7c-2.6,0-3.1,1.4-3.6,2.8L245,28.1c-0.8,2.1-1,3.6,1.2,3.6h32.6 c2.5,0,3-1.4,3.6-3L287.5,14.9z M293,30c-3,8.2-10,12.8-18.1,12.8h-32.7c-7.9,0-11.7-4.9-8.8-12.8l6.3-17.4 c3.1-6.9,10.3-12.2,18-12.2h32.6c8.9,0,11.4,5.6,8.6,13.5L293,30z"></path> </g> <g> <path class="st1" d="M6.5,60l-2.1-0.1v-6.3c0-0.5,0.2-1,0.5-1.4c0.3-0.4,0.8-0.6,1.3-0.7c0.1,0,0.1,0,0.2,0c0.5,0,1,0.2,1.4,0.5 c0.4,0.3,0.7,0.8,0.9,1.3l1.9,4.7l2.1-5c0.2-0.5,0.5-0.9,0.8-1.2c0.3-0.3,0.8-0.4,1.3-0.4c0.6,0,1.1,0.2,1.5,0.7 c0.4,0.5,0.6,1,0.6,1.7v6.1H15v-6.2l-2,4.4c-0.4,0.8-0.7,1.3-1,1.5c-0.3,0.2-0.6,0.4-1,0.4c-0.1,0-0.1,0-0.2,0 c-0.5,0-0.9-0.2-1.3-0.6c-0.3-0.3-0.6-0.8-0.9-1.4l-2-4.3V60z"></path> <path class="st1" d="M26.9,51.5h6.2c0.4,0,0.8,0.1,1.1,0.3c0.3,0.2,0.6,0.4,0.9,0.8c0.2,0.3,0.4,0.5,0.5,0.8 c0.1,0.2,0.1,0.5,0.1,0.9v3.1c0,0.4-0.1,0.7-0.2,1c-0.1,0.3-0.3,0.5-0.6,0.8c-0.5,0.5-1.2,0.8-1.9,0.8h-6.5c-0.4,0-0.8-0.1-1.1-0.2 c-0.3-0.1-0.6-0.4-0.9-0.7c-0.2-0.3-0.4-0.5-0.5-0.8c-0.1-0.3-0.1-0.6-0.1-1V54c0-0.4,0.1-0.7,0.3-1c0.1-0.3,0.4-0.5,0.7-0.8 c0.3-0.3,0.6-0.5,0.9-0.6C26,51.6,26.4,51.5,26.9,51.5z M33.5,53.7H26v4.1h7.5V53.7z"></path> <path class="st1" d="M42.6,51.5h12v2.1h-4.9l0,6.3h-2.1l0-6.3h-4.9V51.5z"></path> <path class="st1" d="M64.4,51.5h6.2c0.4,0,0.8,0.1,1.1,0.3c0.3,0.2,0.6,0.4,0.9,0.8c0.2,0.3,0.4,0.5,0.5,0.8 c0.1,0.2,0.1,0.5,0.1,0.9v3.1c0,0.4-0.1,0.7-0.2,1c-0.1,0.3-0.3,0.5-0.6,0.8c-0.5,0.5-1.2,0.8-1.9,0.8h-6.5c-0.4,0-0.8-0.1-1.1-0.2 c-0.3-0.1-0.6-0.4-0.9-0.7c-0.2-0.3-0.4-0.5-0.5-0.8c-0.1-0.3-0.1-0.6-0.1-1V54c0-0.4,0.1-0.7,0.3-1c0.1-0.3,0.4-0.5,0.7-0.8 c0.3-0.3,0.6-0.5,0.9-0.6C63.6,51.6,63.9,51.5,64.4,51.5z M71.1,53.7h-7.5v4.1h7.5V53.7z"></path> <path class="st1" d="M80.2,51.5h9.2c0.5,0,0.9,0.1,1.3,0.4c0.3,0.2,0.7,0.6,0.9,1.1c0.1,0.2,0.2,0.4,0.3,0.6c0,0.2,0.1,0.4,0.1,0.6 c0,0.4-0.1,0.7-0.2,1.1c-0.1,0.1-0.1,0.3-0.2,0.4c0.1,0.2,0.2,0.3,0.3,0.4c0.2,0.4,0.3,0.7,0.3,1v2.9h-2.2v-3.2h-7.5v3.2h-2.2 L80.2,51.5z M82.4,54.7h7.4v-1h-7.4V54.7z"></path> <path class="st1" d="M110.8,51.5v2.1H101v4.2h9.8v2.1h-9.3c-0.4,0-0.8-0.1-1.1-0.2c-0.3-0.1-0.6-0.3-0.9-0.6 c-0.3-0.3-0.5-0.5-0.6-0.8c-0.1-0.3-0.2-0.6-0.2-0.9v-2.8c0-0.6,0.1-1.1,0.2-1.4c0.2-0.4,0.4-0.8,0.8-1.1c0.3-0.3,0.7-0.4,1-0.5 c0.3-0.1,0.6-0.1,1.2-0.1H110.8z"></path> <path class="st1" d="M122.5,57.5l-4.8-5.9h2.7l3.1,3.8l3.1-3.8h2.7l-4.7,5.9v2.5h-2.1V57.5z"></path> <path class="st1" d="M147,51.5v2.1h-9.8v4.2h9.8v2.1h-9.3c-0.4,0-0.8-0.1-1.1-0.2c-0.3-0.1-0.6-0.3-0.9-0.6 c-0.3-0.3-0.5-0.5-0.6-0.8c-0.1-0.3-0.2-0.6-0.2-0.9v-2.8c0-0.6,0.1-1.1,0.2-1.4c0.2-0.4,0.4-0.8,0.8-1.1c0.3-0.3,0.7-0.4,1-0.5 c0.3-0.1,0.6-0.1,1.2-0.1H147z"></path> <path class="st1" d="M154.6,59.2c-0.3-0.3-0.5-0.5-0.6-0.8c-0.1-0.3-0.2-0.6-0.2-1v-5.9h2.2v6.3h9.6v2.2h-9.2 c-0.3,0-0.6-0.1-0.9-0.2C155.2,59.6,154.9,59.4,154.6,59.2z"></path> <path class="st1" d="M175.4,51.5h8.9v2.2h-9.7v1h9.7v2.2l-9.7,0v0.9h9.7V60h-8.9c-0.5,0-0.9-0.1-1.3-0.2c-0.4-0.1-0.7-0.4-1-0.8 c-0.2-0.3-0.4-0.6-0.5-0.8c-0.1-0.3-0.2-0.6-0.2-0.9v-3.1c0-0.4,0.1-0.8,0.2-1.1c0.1-0.3,0.4-0.6,0.7-0.9c0.3-0.3,0.6-0.5,0.9-0.6 C174.5,51.5,174.9,51.5,175.4,51.5z"></path> <path class="st1" d="M201,54.7c0.8,0,1.4,0.3,2,0.8c0.6,0.5,0.9,1.2,0.9,1.9c0,0.7-0.3,1.4-0.8,1.9c-0.6,0.5-1.2,0.7-2,0.7l-9.6,0 v-2.2h10.3v-1h-7.9c-0.8,0-1.5-0.3-2-0.8c-0.6-0.5-0.9-1.1-0.9-1.9c0-0.8,0.3-1.4,1-1.9c0.6-0.5,1.3-0.7,2.2-0.7l9.2-0.1v2.1 l-10.1,0v1H201z"></path> <path class="st1" d="M225.5,51.5v6.3h7.7v-6.3h2.2v6c0,0.3-0.1,0.6-0.2,0.9c-0.1,0.2-0.3,0.5-0.6,0.8c-0.3,0.3-0.5,0.5-0.8,0.6 c-0.3,0.1-0.6,0.2-0.9,0.2l-7,0c-0.4,0-0.8-0.1-1.1-0.3c-0.3-0.2-0.6-0.4-0.9-0.8c-0.2-0.3-0.4-0.5-0.5-0.8 c-0.1-0.3-0.2-0.5-0.2-0.9v-5.7H225.5z"></path> <path class="st1" d="M242.1,59.9v-2.3h2.5v2.3H242.1z"></path> <path class="st1" d="M261.1,54.7c0.8,0,1.4,0.3,2,0.8c0.6,0.5,0.9,1.2,0.9,1.9c0,0.7-0.3,1.4-0.8,1.9c-0.6,0.5-1.2,0.7-2,0.7 l-9.6,0v-2.2h10.3v-1h-7.9c-0.8,0-1.5-0.3-2-0.8c-0.6-0.5-0.9-1.1-0.9-1.9c0-0.8,0.3-1.4,1-1.9c0.6-0.5,1.3-0.7,2.2-0.7l9.2-0.1 v2.1l-10.1,0v1H261.1z"></path> <path class="st1" d="M270.7,59.9v-2.3h2.5v2.3H270.7z"></path> <path class="st1" d="M281.9,59.9l-2.4,0l3.3-6.4c0.5-0.9,0.9-1.4,1.3-1.7c0.3-0.2,0.7-0.4,1.2-0.4c0.4,0,0.8,0.1,1.2,0.4 c0.3,0.3,0.7,0.9,1.2,1.8l3.3,6.3l-2.3,0l-1.3-2.2h-4.2L281.9,59.9z M284.2,55.6h2l-1-1.8L284.2,55.6z"></path> </g> </svg>